<?xml version="1.0" encoding="UTF-8"?>
<svg width="1280" height="720" xmlns="http://www.w3.org/2000/svg" xmlns:xlink="http://www.w3.org/1999/xlink">
 <g>
  <title>Layer 1</title>
  <path id="svg_1" d="m431.528992,441.096985l0,0l0,0z" fill="#C90012"/>
  <path id="svg_2" d="m431.528992,358.216003l0,0l0,0z" fill="#C90012"/>
  <path id="svg_3" d="m431.528992,275.306l0,0l0,0z" fill="#C90012"/>
  <path id="svg_4" d="m431.528992,316.752991l0,0l0,0z" fill="#C90012"/>
  <path id="svg_5" d="m431.528992,482.544006l0,0l0,0z" fill="#C90012"/>
  <path id="svg_6" d="m431.528992,399.641998l0,0l0,0z" fill="#C90012"/>
  <path id="svg_7" d="m431.528992,233.841995l0,0l0,0z" fill="#C90012"/>
  <path id="svg_8" d="m1202.531982,255.951004c0,-6.110001 -13.947144,-11.108002 -30.98291,-11.108002h-978.898788c-17.052429,0 -40.856644,3.533997 -52.906601,7.854996l-71.828308,25.745026c-12.058331,4.320984 -21.915371,12.852966 -21.915371,18.962982v226.468018c0,6.110962 13.947163,11.109009 30.985645,11.109009h978.896065c17.038452,0 40.85376,-3.535034 52.906494,-7.854004l71.817139,-25.736023c12.052734,-4.316986 21.912598,-12.852997 21.912598,-18.964996l0.014038,-226.477005z" fill="#004E73"/>
  <path fill="black" id="svg_9" d="m1028.202393,390.789001l-71.651062,-25.729004c-12.027222,-4.317993 -35.794861,-7.854004 -52.806702,-7.85199h-53.597656c-17.020203,0.001007 -30.938232,0.001007 -30.938232,0.001007s9.835571,-3.534027 21.871155,-7.855011l187.125305,-67.192993c12.029907,-4.321014 7.947632,-7.855011 -9.058777,-7.855011h-284.420715c-17.017456,0 -40.776794,3.533997 -52.806824,7.855011l-648.08086,232.698975c-5.082129,1.822021 -9.793882,3.513977 -13.564402,4.867004c5.602871,2.01001 13.327696,3.257996 21.821112,3.257996c0.013924,0 0.027851,0 0.044556,0h278.341728h467.800476c17.017578,0 30.971802,-0.012024 31.002441,-0.02301c0.041748,-0.015991 9.910828,-3.562012 21.943604,-7.880005l186.977661,-67.131989c12.030029,-4.31601 21.868408,-12.85199 21.868408,-18.963013v-19.234985c-0.002808,-6.111969 -9.841187,-14.64798 -21.871216,-18.962982z" opacity="0.2"/>
  <path id="svg_10" d="m470.475189,399.648987c-28.61795,0 -68.607147,-3.536011 -88.833618,-7.856995l-120.459564,-25.717987c-20.24527,-4.321014 -36.812531,-12.855011 -36.849991,-18.966003l-0.056274,-19.246002c-0.03746,-6.110016 16.515793,-14.643005 36.761063,-18.96402l120.604767,-25.737c20.245209,-4.320984 60.215668,-7.85498 88.847626,-7.85498h478.558533c28.61322,0 35.481934,3.533997 15.241333,7.85498l-120.604797,25.737c-20.245178,4.321014 -60.215698,7.855011 -88.847595,7.855011h-284.342743c-28.636688,0 -52.053833,4.997986 -52.053833,11.108002v19.246002c0,6.109985 23.417145,11.108002 52.035095,11.105988l284.408234,-0.006989c28.61792,-0.002014 68.611816,3.53299 88.847717,7.85199l120.553345,25.729004c20.240479,4.315002 36.793762,12.851013 36.793762,18.963013v19.234985c0,6.110016 -16.548584,14.645996 -36.793762,18.963013l-120.604919,25.73999c-20.245239,4.317017 -60.215698,7.854004 -88.847656,7.854004h-284.342712c-28.636658,0 -68.606995,-3.536011 -88.847626,-7.854004l-120.604767,-25.73999c-20.240616,-4.31601 -13.390656,-7.854004 15.241302,-7.854004h478.558563c28.636658,0 52.053772,-4.998016 52.053772,-11.109009v-19.234985c0,-6.112 0,-11.109985 0.014038,-11.109985c0.018738,0 -23.398438,0 -52.021057,0l-284.408234,0.008972z" fill="#FFFFFF"/>
  <g id="svg_11" opacity="0.2">
   <path id="svg_12" d="m17.007999,369.877014c0,-6.110016 0,-11.238007 0,-11.393005c0,-0.154999 3.532001,-3.817993 7.854,-8.138l67.184998,-67.185974c4.320999,-4.321014 12.855003,-7.855011 18.963005,-7.855011h102.150002c6.108002,0 7.57399,3.533997 3.252991,7.855011l-67.196991,67.181976c-4.320007,4.321014 -7.852997,7.855011 -7.852997,7.855011s4.997986,0.001984 11.110001,0.006012l19.227997,0.006989c6.108002,0.003998 10.75,4.993011 10.317993,11.085999l-1.113998,15.59201c-0.432999,6.09198 -1.707001,11.997986 -2.832993,13.122986c-1.125,1.125 -5.576004,5.580017 -9.896011,9.895996l-25.200989,25.201019c-4.320007,4.315979 -7.88501,7.884979 -7.922012,7.917999c-0.033997,0.035004 4.932999,0.065002 11.041,0.061981h17.979004c6.108002,-0.003998 14.783997,3.378998 19.281006,7.518005l26.835999,24.695007c4.496994,4.136993 8.181,7.622986 8.057999,7.75c-0.126007,0.126007 -3.766006,3.761993 -8.087006,8.083008l-34.826996,34.848999l-147.212009,0.002014c-6.107,0 -11.10499,-4.998047 -11.10499,-11.110046l-0.009001,-142.997986z"/>
  </g>
  <path id="svg_13" d="m162.438309,441.096985c-12.08287,0 -21.971542,-4.998016 -21.971542,-11.109009v-19.234985c0,-6.112 9.888672,-11.110016 21.971542,-11.110016h120.076767c12.084839,0 21.973511,-4.997986 21.973511,-11.109009v-19.203979c0,-6.112 -9.888672,-11.110016 -21.973511,-11.110016h-120.076767c-12.08287,0 -21.971542,-4.997986 -21.971542,-11.108002v-19.246002c0,-6.109985 9.888672,-11.108002 21.971542,-11.108002h120.076767c12.084839,0 28.971558,-3.533997 37.520782,-7.853973l50.945068,-25.740997c8.549225,-4.319 5.648712,-7.853027 -6.436127,-7.853027h-202.106491c-12.08287,0 -28.971573,3.534027 -37.518814,7.855011l-50.921341,25.735016c-8.547226,4.320984 -15.545277,12.854004 -15.545277,18.963989v102.125c0,6.110992 6.998051,14.645996 15.545277,18.963013l50.921341,25.73999c8.54921,4.317017 25.43396,7.854004 37.518814,7.854004h202.092606c12.092743,0 14.985382,-3.536011 6.436157,-7.855988l-50.92926,-25.744019c-8.547241,-4.320984 -25.431976,-7.856995 -37.520782,-7.856995l-120.07872,0.007996z" fill="#FFFFFF"/>
  <g id="svg_14">
   <text xml:space="preserve" text-anchor="middle" font-family="serif" font-size="24" id="svg_30" y="989.400024" x="1788" stroke-linecap="null" stroke-linejoin="null" stroke-width="0" fill="#000000">a</text>
   <text xml:space="preserve" text-anchor="middle" font-family="serif" font-size="24" id="svg_31" y="987.400024" x="1989" stroke-linecap="null" stroke-linejoin="null" stroke-width="0" fill="#000000">a</text>
   <text stroke="#000000" xml:space="preserve" text-anchor="middle" font-family="serif" font-size="24" id="svg_32" y="1009.400024" x="1443" stroke-linecap="null" stroke-linejoin="null" stroke-width="0" fill="#000000">sf</text>
   <text xml:space="preserve" text-anchor="middle" font-family="serif" font-size="24" id="svg_33" y="970.400024" x="1942" stroke-linecap="null" stroke-linejoin="null" stroke-width="0" stroke="#000000" fill="#000000"/>
  </g>
  <use x="295.69165" y="26.829166" transform="matrix(1.75182, 0, 0, 1.75182, 0, 0)" id="svg_35" xlink:href="#svg_34"/>
 </g>
 <defs>
  <svg id="svg_34" height="137" width="137">
   <title>Cool smiley</title>
   <path id="svg_1" d="m32.186821,97.716743q36.315903,24.940758 72.545853,0m-64.675423,-49.25576c0,-3.8554 3.125259,-6.980789 6.980679,-6.980789c3.854492,0 6.978722,3.125389 6.978722,6.980789c0,3.853458 -3.124229,6.978668 -6.978722,6.978668c-3.855419,0 -6.980679,-3.12521 -6.980679,-6.978668m42.930466,0c0,-3.8554 3.12529,-6.980789 6.97963,-6.980789c3.854401,0 6.979713,3.125389 6.979713,6.980789c0,3.853458 -3.125305,6.978668 -6.979713,6.978668c-3.85434,0 -6.97963,-3.12521 -6.97963,-6.978668m-81.485958,20.036003l0,0c0,-37.001972 29.996789,-66.99892 67.000949,-66.99892c37.003029,0 66.999977,29.99695 66.999977,66.99892c0,37.004089 -29.996948,67.000999 -66.999977,67.000999c-37.004158,0 -67.000949,-29.996918 -67.000949,-67.000999zm0,0l0,0c0,-37.001972 29.996789,-66.99892 67.000949,-66.99892c37.003029,0 66.999977,29.99695 66.999977,66.99892c0,37.004089 -29.996948,67.000999 -66.999977,67.000999c-37.004158,0 -67.000949,-29.996918 -67.000949,-67.000999z" stroke-width="3" stroke="#000000" fill="url(#svg_4)"/>
   <path fill="#000000" stroke-width="3" d="m23.84,41.0345l17.570599,0l5.429302,-19.679199l5.429398,19.679199l17.570698,0l-14.214897,12.162399l5.429802,19.679398l-14.215,-12.162796l-14.214901,12.162796l5.43,-19.679398l-14.214901,-12.162399l0,0l-0.000099,0z" id="svg_5"/>
   <path fill="#000000" stroke-width="3" d="m65.84005,41.034451l17.570518,0l5.429375,-19.67914l5.429405,19.67914l17.570602,0l-14.214874,12.162422l5.429825,19.679386l-14.214958,-12.162796l-14.214905,12.162796l5.429924,-19.679386l-14.214912,-12.162422l0,0z" id="svg_6"/>
   <defs>
    <linearGradient id="svg_4" x1="0.44531" y1="0.94922" x2="0.46484" y2="0.25391">
     <stop offset="0" stop-color="#ff0000"/>
     <stop offset="1" stop-color="#ffff00"/>
    </linearGradient>
   </defs>
  </svg>
 </defs>
</svg>